<svg width="403" height="211" viewBox="0 0 403 211" fill="none" xmlns="http://www.w3.org/2000/svg">
<g clip-path="url(#clip0_3_8188)">
<path d="M0.137695 94.8349V75.7023H99.1601V94.8349H0.137695ZM1.10576 49.0135C7.09245 46.1385 12.4677 42.9582 17.2061 39.4472C21.9445 35.9362 26.1225 32.1453 29.7145 28.1C33.2301 24.1055 35.9305 19.8567 37.8666 15.3025C39.7772 10.7484 40.8472 5.96524 41.102 0.953125H63.4947C63.3419 4.3115 62.9852 7.51721 62.4248 10.6466C61.8643 13.7506 61.0746 16.7527 60.0301 19.6277C63.6221 21.6885 67.0867 23.8002 70.4495 25.9119C73.8122 28.0236 76.9457 30.1862 79.9008 32.4251C82.7795 34.8167 85.7601 37.4118 88.8681 40.2105C91.9761 43.0091 95.186 46.0622 98.4468 49.4205L84.308 65.4491C81.5058 62.3452 78.6525 59.3939 75.6974 56.5952C72.7423 53.7966 69.7107 51.1252 66.6027 48.5809C63.724 46.5964 60.9217 44.6628 58.1704 42.831C55.4191 40.9992 52.6423 39.2945 49.84 37.6917L48.4134 39.4981C46.0951 42.2967 43.624 44.9427 41.0001 47.4615C38.3761 49.9803 35.5738 52.2955 32.6187 54.4581C29.5107 56.7733 26.3263 58.8596 23.0909 60.7423C19.8556 62.625 16.5693 64.3042 13.2065 65.8308L1.10576 49.0135Z" fill="#0059FF"/>
<path d="M129.629 6.14313V73.8703H146.952C148.557 73.8703 150.136 73.8448 151.741 73.7685C153.346 73.6922 154.926 73.5395 156.531 73.3106C158.136 73.2342 159.588 73.0816 160.912 72.8526C162.237 72.6236 163.485 72.3183 164.606 71.9367V88.7794C163.536 89.39 162.339 89.848 161.014 90.2042C159.69 90.5349 158.212 90.7894 156.632 90.942C154.875 91.171 153.168 91.3236 151.512 91.4C149.831 91.4763 148.175 91.5017 146.493 91.5017H108.535V6.14313H129.629ZM206.309 35.0455V54.7377C205.851 54.7377 205.367 54.7378 204.832 54.7886C204.297 54.8395 203.736 54.8904 203.125 54.9667C202.513 54.9667 201.902 55.0176 201.291 55.0685C200.679 55.1448 200.042 55.1703 199.355 55.1703C198.055 55.3992 196.832 55.6282 195.661 55.8572C194.489 56.0862 193.368 56.3152 192.298 56.5441V96.2594H171.204V4.66748H192.298V37.1063C193.368 36.801 194.489 36.5211 195.661 36.2413C196.832 35.9868 198.106 35.7324 199.482 35.5034C200.17 35.5034 200.832 35.478 201.469 35.4017C202.106 35.3253 202.692 35.2999 203.227 35.2999C203.838 35.2236 204.373 35.1727 204.883 35.1218C205.367 35.0964 205.851 35.0709 206.309 35.0709V35.0455Z" fill="#1D1D1B"/>
<path d="M246.484 4.71857C248.42 5.12565 250.305 5.73626 252.114 6.47409C253.795 7.39001 255.349 8.48402 256.776 9.78157C258.228 11.0791 259.578 12.5802 260.877 14.3357C262.024 16.1676 263.094 18.2284 264.062 20.5436C265.055 22.8589 265.896 25.3776 266.558 28.1C267.17 30.9749 267.654 34.1298 267.985 37.539C268.316 40.9483 268.494 44.6374 268.494 48.5809C268.494 52.5245 268.316 56.4426 267.985 59.9027C267.654 63.3629 267.17 66.4414 266.558 69.1891C265.871 72.0641 265.03 74.6592 264.062 76.9236C263.068 79.1879 261.998 81.2233 260.877 82.9534C259.578 84.7852 258.228 86.3372 256.776 87.6093C255.324 88.9069 253.77 89.9245 252.114 90.6878C250.305 91.5274 248.42 92.138 246.484 92.5196C244.548 92.9013 242.51 93.0794 240.395 93.0794C238.128 93.0794 236.013 92.9013 234.077 92.5196C232.141 92.138 230.332 91.5274 228.677 90.6878C226.842 89.9245 225.212 88.9069 223.709 87.6093C222.231 86.3117 220.907 84.7598 219.786 82.9534C218.486 81.1979 217.391 79.1879 216.474 76.9236C215.557 74.6592 214.793 72.0641 214.207 69.1891C213.519 66.4668 213.035 63.3629 212.729 59.9027C212.423 56.4426 212.271 52.6771 212.271 48.5809C212.271 44.4847 212.423 40.9483 212.729 37.539C213.035 34.1298 213.519 30.9749 214.207 28.1C214.818 25.3776 215.582 22.8589 216.474 20.5436C217.391 18.2284 218.486 16.1676 219.786 14.3357C220.932 12.5802 222.231 11.0791 223.709 9.78157C225.186 8.48402 226.842 7.39001 228.677 6.47409C230.358 5.71082 232.141 5.12565 234.077 4.71857C236.013 4.3115 238.128 4.08252 240.395 4.08252C242.51 4.08252 244.548 4.28606 246.484 4.71857ZM238.612 23.1642C238.052 23.3423 237.542 23.5713 237.083 23.8002C236.472 24.1819 235.937 24.6653 235.478 25.225C235.02 25.7847 234.612 26.5225 234.23 27.4385C233.772 28.3544 233.415 29.4738 233.16 30.7968C232.906 32.1198 232.651 33.5955 232.421 35.1729C232.116 36.9284 231.912 38.9129 231.785 41.1518C231.683 43.3907 231.606 45.8841 231.606 48.6064C231.606 51.4814 231.657 54.051 231.785 56.2899C231.886 58.5288 232.116 60.437 232.421 62.0399C232.651 63.7954 232.906 65.2965 233.16 66.594C233.415 67.8916 233.797 68.9856 234.23 69.9015C234.612 70.8174 235.02 71.5807 235.478 72.1659C235.937 72.7765 236.472 73.1836 237.083 73.4125C237.542 73.7942 238.052 74.0486 238.612 74.1504C239.172 74.2521 239.758 74.3285 240.37 74.3285C240.828 74.3285 241.312 74.2776 241.847 74.1504C242.382 74.0486 242.943 73.7942 243.554 73.4125C244.013 73.1836 244.497 72.7765 244.981 72.1659C245.465 71.5553 245.949 70.792 246.407 69.9015C246.713 68.9856 247.044 67.8916 247.375 66.594C247.707 65.2965 248.038 63.7954 248.344 62.0399C248.573 60.437 248.751 58.5288 248.904 56.2899C249.057 54.051 249.133 51.4814 249.133 48.6064C249.133 45.8841 249.057 43.3907 248.904 41.1518C248.751 38.9129 248.573 36.9284 248.344 35.1729C248.038 33.57 247.707 32.1198 247.375 30.7968C247.044 29.4738 246.713 28.3544 246.407 27.4385C245.949 26.5225 245.465 25.7847 244.981 25.225C244.497 24.6653 244.013 24.1819 243.554 23.8002C242.943 23.5713 242.382 23.3677 241.847 23.1642C241.312 22.9861 240.828 22.8843 240.37 22.8843C239.758 22.8843 239.172 22.9861 238.612 23.1642ZM277.182 96.2851V4.66769H298.275V96.2851H277.182Z" fill="#1D1D1B"/>
<path d="M315.929 22.6551H310.809V5.5834H365.631V22.6551H359.263V74.3283H365.631V91.4H310.809V74.3283H315.929V22.6551ZM340.997 74.3283V22.6551H334.169V74.3283H340.997ZM378.038 55.3229C377.426 55.5519 376.739 55.7046 375.923 55.7809C375.134 55.8572 374.242 55.8827 373.249 55.8827C372.102 55.959 370.981 55.9844 369.886 55.9844H364.918V37.7678H378.012V4.66748H397.96V96.4121H378.012V55.3229H378.038Z" fill="#1D1D1B"/>
<path d="M7.0923 128.851H2.53223V112.696H50.4258V128.851H45.7638V150.248H50.4258V166.379H2.53223V150.248H7.0923V128.851ZM80.8433 208.74V192.711H9.58888V173.579H101.784V208.74H80.8433ZM29.4851 150.248V128.851H23.371V150.248H29.4851ZM83.2379 148.696C82.1934 148.925 81.1235 149.103 80.0026 149.231C78.8817 149.358 77.7353 149.409 76.5379 149.409V169.381H57.9664V112.339H76.5379V130.632H83.2379V112.339H101.809V169.381H83.2379V148.696Z" fill="#0059FF"/>
<path d="M179.306 162.664C181.42 162.664 183.483 162.664 185.471 162.613C187.458 162.588 189.343 162.486 191.177 162.333C192.858 162.333 194.463 162.231 196.017 162.053C197.571 161.875 199.049 161.646 200.399 161.417V177.7C199.329 178.082 198.106 178.413 196.705 178.667C195.304 178.921 193.725 179.1 191.967 179.176C190.133 179.405 188.222 179.557 186.209 179.634C184.197 179.71 182.133 179.736 179.993 179.736H167.561V190.218H204.373V207.289H110.14V190.218H146.952V179.736H115.719V117.021H198.667V134.092H135.08V139.791H197.52V156.863H135.08V162.664H179.306Z" fill="#1D1D1B"/>
<path d="M214.741 151.622H246.764V135.568H215.302V117.936H266.125V168.694H234.102V186.096H269.309V203.728H214.716V151.596L214.741 151.622ZM277.41 208.638V117.021H298.504V208.638H277.41Z" fill="#1D1D1B"/>
<path d="M351.926 136.865V128.571C335.087 130.454 321.61 143.659 319.369 160.374H327.699C329.814 148.187 339.622 138.621 351.926 136.865Z" fill="#0059FF"/>
<path d="M384.381 160.399H392.712C390.47 143.684 376.993 130.479 360.154 128.597V136.891C372.459 138.672 382.267 148.238 384.381 160.399Z" fill="#0059FF"/>
<path d="M327.444 168.618H319.165C320.719 186.096 334.501 200.115 351.9 202.049V193.755C339.061 191.897 328.922 181.542 327.444 168.618Z" fill="#0059FF"/>
<path d="M360.154 193.755V202.049C377.554 200.115 391.336 186.096 392.89 168.618H384.611C383.133 181.568 372.994 191.923 360.154 193.755Z" fill="#0059FF"/>
<path d="M356.053 148.951C346.984 148.951 339.596 156.329 339.596 165.386C339.596 174.444 346.984 181.822 356.053 181.822C365.122 181.822 372.51 174.444 372.51 165.386C372.51 156.329 365.122 148.951 356.053 148.951ZM356.053 173.579C351.518 173.579 347.85 169.89 347.85 165.386C347.85 160.883 351.544 157.194 356.053 157.194C360.562 157.194 364.256 160.883 364.256 165.386C364.256 169.89 360.562 173.579 356.053 173.579Z" fill="#0059FF"/>
<path d="M360.154 128.597V123.941C360.154 121.677 358.32 119.819 356.027 119.819C353.735 119.819 351.9 121.651 351.9 123.941V128.597C353.251 128.444 354.626 128.368 356.027 128.368C357.429 128.368 358.804 128.444 360.154 128.597Z" fill="#0059FF"/>
<path d="M356.053 136.586C357.454 136.586 358.83 136.688 360.18 136.891V128.597C358.83 128.444 357.454 128.368 356.053 128.368C354.652 128.368 353.276 128.444 351.926 128.597V136.891C353.276 136.688 354.652 136.586 356.053 136.586Z" fill="#0059FF"/>
<path d="M351.926 202.048V206.831C351.926 209.096 353.76 210.953 356.053 210.953C358.346 210.953 360.18 209.121 360.18 206.831V202.048C358.83 202.201 357.454 202.277 356.053 202.277C354.652 202.277 353.276 202.201 351.926 202.048Z" fill="#0059FF"/>
<path d="M356.053 194.06C354.652 194.06 353.276 193.958 351.926 193.754V202.049C353.276 202.201 354.652 202.278 356.053 202.278C357.454 202.278 358.83 202.201 360.18 202.049V193.754C358.83 193.958 357.454 194.06 356.053 194.06Z" fill="#0059FF"/>
<path d="M398.036 160.399H392.737C392.941 162.002 393.068 163.656 393.068 165.335C393.068 166.455 393.018 167.549 392.916 168.617H398.036C400.303 168.617 402.163 166.785 402.163 164.496C402.163 162.206 400.329 160.374 398.036 160.374V160.399Z" fill="#0059FF"/>
<path d="M392.712 160.399H384.381C384.662 162.002 384.814 163.656 384.814 165.335C384.814 166.455 384.738 167.549 384.611 168.617H392.89C392.992 167.523 393.043 166.429 393.043 165.335C393.043 163.656 392.916 162.028 392.712 160.399Z" fill="#0059FF"/>
<path d="M319.368 160.399H314.605C312.337 160.399 310.478 162.231 310.478 164.521C310.478 166.811 312.312 168.643 314.605 168.643H319.19C319.088 167.549 319.037 166.455 319.037 165.361C319.037 163.681 319.165 162.053 319.368 160.425V160.399Z" fill="#0059FF"/>
<path d="M327.266 165.31C327.266 163.631 327.418 161.977 327.699 160.374H319.368C319.164 161.977 319.037 163.631 319.037 165.31C319.037 166.429 319.088 167.523 319.19 168.592H327.469C327.342 167.498 327.266 166.404 327.266 165.31Z" fill="#0059FF"/>
<path d="M357.607 177.7C364.417 177.7 369.937 172.187 369.937 165.386C369.937 158.585 364.417 153.072 357.607 153.072C350.797 153.072 345.277 158.585 345.277 165.386C345.277 172.187 350.797 177.7 357.607 177.7Z" fill="#0059FF"/>
</g>
<defs>
<clipPath id="clip0_3_8188">
<rect width="402" height="210" fill="white" transform="translate(0.137695 0.953125)"/>
</clipPath>
</defs>
</svg>
