<svg width="43" height="43" viewBox="0 0 43 43" fill="none" xmlns="http://www.w3.org/2000/svg">
<circle cx="21.5" cy="21.5" r="21" fill="white" stroke="#E6E6E6"/>
<g clip-path="url(#clip0_877_11570)">
<path d="M11 21.1704V20.1167H16.2975V21.1704H11ZM11.0518 18.6469C11.3721 18.4885 11.6596 18.3134 11.9131 18.12C12.1666 17.9267 12.3901 17.7179 12.5823 17.4951C12.7704 17.2751 12.9148 17.0411 13.0184 16.7903C13.1206 16.5395 13.1779 16.276 13.1915 16H14.3895C14.3813 16.185 14.3622 16.3615 14.3322 16.5339C14.3023 16.7048 14.26 16.8701 14.2041 17.0285C14.3963 17.142 14.5817 17.2583 14.7616 17.3746C14.9415 17.4909 15.1091 17.61 15.2672 17.7333C15.4212 17.865 15.5806 18.0079 15.7469 18.1621C15.9132 18.3162 16.0849 18.4843 16.2594 18.6693L15.503 19.552C15.353 19.3811 15.2004 19.2186 15.0423 19.0644C14.8842 18.9103 14.722 18.7632 14.5558 18.623C14.4018 18.5138 14.2518 18.4073 14.1046 18.3064C13.9575 18.2055 13.8089 18.1116 13.659 18.0233L13.5827 18.1228C13.4586 18.277 13.3264 18.4227 13.1861 18.5614C13.0457 18.7001 12.8958 18.8276 12.7377 18.9467C12.5714 19.0742 12.401 19.1891 12.228 19.2928C12.0549 19.3965 11.8791 19.489 11.6992 19.5731L11.0518 18.6469Z" fill="#0059FF"/>
<path d="M17.9273 16.2859V20.0159H18.8541C18.9399 20.0159 19.0244 20.0145 19.1103 20.0103C19.1961 20.006 19.2806 19.9976 19.3665 19.985C19.4524 19.9808 19.53 19.9724 19.6009 19.9598C19.6718 19.9472 19.7386 19.9304 19.7985 19.9094V20.837C19.7413 20.8706 19.6772 20.8958 19.6064 20.9154C19.5355 20.9336 19.4564 20.9477 19.3719 20.9561C19.2779 20.9687 19.1866 20.9771 19.098 20.9813C19.0081 20.9855 18.9195 20.9869 18.8295 20.9869H16.7988V16.2859H17.9273ZM22.0296 17.8776V18.9622C22.005 18.9622 21.9791 18.9622 21.9505 18.965C21.9219 18.9678 21.8919 18.9706 21.8592 18.9748C21.8265 18.9748 21.7938 18.9776 21.7611 18.9804C21.7284 18.9846 21.6943 18.986 21.6575 18.986C21.588 18.9986 21.5226 19.0112 21.4599 19.0238C21.3972 19.0364 21.3372 19.049 21.28 19.0616V21.2489H20.1515V16.2046H21.28V17.9911C21.3372 17.9743 21.3972 17.9589 21.4599 17.9435C21.5226 17.9295 21.5907 17.9155 21.6643 17.9028C21.7011 17.9028 21.7365 17.9014 21.7706 17.8972C21.8047 17.893 21.836 17.8916 21.8647 17.8916C21.8974 17.8874 21.926 17.8846 21.9532 17.8818C21.9791 17.8804 22.005 17.879 22.0296 17.879V17.8776Z" fill="#1D1D1B"/>
<path d="M24.179 16.2074C24.2826 16.2298 24.3834 16.2634 24.4802 16.3041C24.5701 16.3545 24.6533 16.4148 24.7296 16.4862C24.8073 16.5577 24.8795 16.6404 24.949 16.737C25.0103 16.8379 25.0676 16.9514 25.1194 17.0789C25.1725 17.2064 25.2175 17.3452 25.2529 17.4951C25.2856 17.6534 25.3115 17.8272 25.3293 18.0149C25.347 18.2027 25.3565 18.4059 25.3565 18.6231C25.3565 18.8403 25.347 19.056 25.3293 19.2466C25.3115 19.4372 25.2856 19.6067 25.2529 19.758C25.2161 19.9164 25.1712 20.0593 25.1194 20.184C25.0662 20.3087 25.009 20.4208 24.949 20.5161C24.8795 20.617 24.8073 20.7024 24.7296 20.7725C24.6519 20.844 24.5688 20.9 24.4802 20.9421C24.3834 20.9883 24.2826 21.0219 24.179 21.0429C24.0754 21.064 23.9664 21.0738 23.8533 21.0738C23.732 21.0738 23.6188 21.064 23.5153 21.0429C23.4117 21.0219 23.3149 20.9883 23.2263 20.9421C23.1282 20.9 23.041 20.844 22.9606 20.7725C22.8815 20.701 22.8107 20.6156 22.7507 20.5161C22.6812 20.4194 22.6226 20.3087 22.5735 20.184C22.5244 20.0593 22.4836 19.9164 22.4522 19.758C22.4154 19.6081 22.3895 19.4372 22.3732 19.2466C22.3568 19.056 22.3486 18.8487 22.3486 18.6231C22.3486 18.3975 22.3568 18.2027 22.3732 18.0149C22.3895 17.8272 22.4154 17.6534 22.4522 17.4951C22.4849 17.3452 22.5258 17.2064 22.5735 17.0789C22.6226 16.9514 22.6812 16.8379 22.7507 16.737C22.812 16.6404 22.8815 16.5577 22.9606 16.4862C23.0396 16.4148 23.1282 16.3545 23.2263 16.3041C23.3163 16.262 23.4117 16.2298 23.5153 16.2074C23.6188 16.185 23.732 16.1724 23.8533 16.1724C23.9664 16.1724 24.0754 16.1836 24.179 16.2074ZM23.7579 17.2233C23.7279 17.2331 23.7006 17.2457 23.6761 17.2583C23.6434 17.2793 23.6147 17.3059 23.5902 17.3368C23.5657 17.3676 23.5439 17.4082 23.5234 17.4587C23.4989 17.5091 23.4798 17.5708 23.4662 17.6436C23.4526 17.7165 23.4389 17.7978 23.4267 17.8846C23.4103 17.9813 23.3994 18.0906 23.3926 18.2139C23.3871 18.3372 23.3831 18.4745 23.3831 18.6245C23.3831 18.7828 23.3858 18.9243 23.3926 19.0476C23.3981 19.1709 23.4103 19.276 23.4267 19.3643C23.4389 19.461 23.4526 19.5437 23.4662 19.6151C23.4798 19.6866 23.5003 19.7468 23.5234 19.7973C23.5439 19.8477 23.5657 19.8898 23.5902 19.922C23.6147 19.9556 23.6434 19.978 23.6761 19.9906C23.7006 20.0117 23.7279 20.0257 23.7579 20.0313C23.7878 20.0369 23.8192 20.0411 23.8519 20.0411C23.8764 20.0411 23.9023 20.0383 23.9309 20.0313C23.9596 20.0257 23.9895 20.0117 24.0223 19.9906C24.0468 19.978 24.0727 19.9556 24.0986 19.922C24.1245 19.8883 24.1504 19.8463 24.1749 19.7973C24.1912 19.7468 24.209 19.6866 24.2267 19.6151C24.2444 19.5437 24.2621 19.461 24.2785 19.3643C24.2907 19.276 24.3003 19.1709 24.3085 19.0476C24.3166 18.9243 24.3207 18.7828 24.3207 18.6245C24.3207 18.4745 24.3166 18.3372 24.3085 18.2139C24.3003 18.0906 24.2907 17.9813 24.2785 17.8846C24.2621 17.7964 24.2444 17.7165 24.2267 17.6436C24.209 17.5708 24.1912 17.5091 24.1749 17.4587C24.1504 17.4082 24.1245 17.3676 24.0986 17.3368C24.0727 17.3059 24.0468 17.2793 24.0223 17.2583C23.9895 17.2457 23.9596 17.2345 23.9309 17.2233C23.9023 17.2135 23.8764 17.2079 23.8519 17.2079C23.8192 17.2079 23.7878 17.2135 23.7579 17.2233ZM25.8213 21.2503V16.2046H26.9497V21.2503H25.8213Z" fill="#1D1D1B"/>
<path d="M27.8941 17.1952H27.6201V16.255H30.553V17.1952H30.2123V20.0411H30.553V20.9813H27.6201V20.0411H27.8941V17.1952ZM29.2351 20.0411V17.1952H28.8699V20.0411H29.2351ZM31.2168 18.9944C31.1841 19.007 31.1473 19.0154 31.1036 19.0196C31.0614 19.0238 31.0137 19.0252 30.9605 19.0252C30.8992 19.0294 30.8392 19.0308 30.7806 19.0308H30.5149V18.0276H31.2154V16.2046H32.2825V21.2573H31.2154V18.9944H31.2168Z" fill="#1D1D1B"/>
<path d="M11.3719 23.0439H11.1279V22.1541H13.6901V23.0439H13.4407V24.2223H13.6901V25.1107H11.1279V24.2223H11.3719V23.0439ZM15.3174 27.4437V26.5609H11.5054V25.5072H16.4377V27.4437H15.3174ZM12.5699 24.2223V23.0439H12.2428V24.2223H12.5699ZM15.4455 24.1368C15.3897 24.1494 15.3324 24.1593 15.2725 24.1663C15.2125 24.1733 15.1512 24.1761 15.0871 24.1761V25.276H14.0936V22.1345H15.0871V23.142H15.4455V22.1345H16.4391V25.276H15.4455V24.1368Z" fill="#0059FF"/>
<path d="M20.585 24.9061C20.6981 24.9061 20.8085 24.9061 20.9148 24.9033C21.0211 24.9019 21.122 24.8963 21.2201 24.8879C21.31 24.8879 21.3959 24.8823 21.479 24.8725C21.5622 24.8627 21.6412 24.85 21.7135 24.8374V25.7342C21.6562 25.7552 21.5908 25.7734 21.5158 25.7874C21.4409 25.8015 21.3564 25.8113 21.2623 25.8155C21.1642 25.8281 21.062 25.8365 20.9543 25.8407C20.8467 25.8449 20.7363 25.8463 20.6218 25.8463H19.9567V26.4236H21.9261V27.3638H16.8848V26.4236H18.8541V25.8463H17.1832V22.3923H21.6208V23.3325H18.219V23.6464H21.5594V24.5866H18.219V24.9061H20.585Z" fill="#1D1D1B"/>
<path d="M22.4809 24.298H24.194V23.4138H22.5108V22.4428H25.2298V25.2382H23.5166V26.1966H25.4001V27.1676H22.4795V24.2966L22.4809 24.298ZM25.8335 27.4381V22.3923H26.962V27.4381H25.8335Z" fill="#1D1D1B"/>
<path d="M29.8199 23.4852V23.0284C28.919 23.1321 28.1981 23.8594 28.0781 24.7799H28.5238C28.6369 24.1088 29.1616 23.5819 29.8199 23.4852Z" fill="#0059FF"/>
<path d="M31.5559 24.7813H32.0015C31.8816 23.8607 31.1606 23.1335 30.2598 23.0298V23.4866C30.918 23.5847 31.4427 24.1115 31.5559 24.7813Z" fill="#0059FF"/>
<path d="M28.5103 25.2339H28.0674C28.1505 26.1965 28.8878 26.9686 29.8187 27.0751V26.6183C29.1318 26.516 28.5894 25.9457 28.5103 25.2339Z" fill="#0059FF"/>
<path d="M30.2598 26.6183V27.0751C31.1906 26.9686 31.9279 26.1965 32.0111 25.2339H31.5681C31.4891 25.9471 30.9467 26.5174 30.2598 26.6183Z" fill="#0059FF"/>
<path d="M30.0406 24.1508C29.5554 24.1508 29.1602 24.5571 29.1602 25.0559C29.1602 25.5548 29.5554 25.9611 30.0406 25.9611C30.5258 25.9611 30.921 25.5548 30.921 25.0559C30.921 24.5571 30.5258 24.1508 30.0406 24.1508ZM30.0406 25.5071C29.798 25.5071 29.6017 25.3039 29.6017 25.0559C29.6017 24.8079 29.7993 24.6047 30.0406 24.6047C30.2818 24.6047 30.4794 24.8079 30.4794 25.0559C30.4794 25.3039 30.2818 25.5071 30.0406 25.5071Z" fill="#0059FF"/>
<path d="M30.2599 23.0298V22.7734C30.2599 22.6487 30.1618 22.5464 30.0391 22.5464C29.9165 22.5464 29.8184 22.6473 29.8184 22.7734V23.0298C29.8906 23.0214 29.9642 23.0172 30.0391 23.0172C30.1141 23.0172 30.1877 23.0214 30.2599 23.0298Z" fill="#0059FF"/>
<path d="M30.0411 23.4698C30.1161 23.4698 30.1897 23.4754 30.2619 23.4866V23.0298C30.1897 23.0214 30.1161 23.0172 30.0411 23.0172C29.9661 23.0172 29.8925 23.0214 29.8203 23.0298V23.4866C29.8925 23.4754 29.9661 23.4698 30.0411 23.4698Z" fill="#0059FF"/>
<path d="M29.8203 27.0751V27.3385C29.8203 27.4632 29.9184 27.5655 30.0411 27.5655C30.1638 27.5655 30.2619 27.4646 30.2619 27.3385V27.0751C30.1897 27.0835 30.1161 27.0877 30.0411 27.0877C29.9661 27.0877 29.8925 27.0835 29.8203 27.0751Z" fill="#0059FF"/>
<path d="M30.0411 26.6351C29.9661 26.6351 29.8925 26.6295 29.8203 26.6183V27.0751C29.8925 27.0835 29.9661 27.0877 30.0411 27.0877C30.1161 27.0877 30.1897 27.0835 30.2619 27.0751V26.6183C30.1897 26.6295 30.1161 26.6351 30.0411 26.6351Z" fill="#0059FF"/>
<path d="M32.2864 24.7813H32.0029C32.0138 24.8696 32.0206 24.9607 32.0206 25.0531C32.0206 25.1148 32.0179 25.175 32.0125 25.2339H32.2864C32.4077 25.2339 32.5072 25.133 32.5072 25.0069C32.5072 24.8808 32.4091 24.7799 32.2864 24.7799V24.7813Z" fill="#0059FF"/>
<path d="M32.0023 24.7812H31.5566C31.5716 24.8695 31.5798 24.9606 31.5798 25.0531C31.5798 25.1147 31.5757 25.175 31.5689 25.2338H32.0118C32.0173 25.1736 32.02 25.1133 32.02 25.0531C32.02 24.9606 32.0132 24.8709 32.0023 24.7812Z" fill="#0059FF"/>
<path d="M28.0782 24.7812H27.8233C27.702 24.7812 27.6025 24.8821 27.6025 25.0082C27.6025 25.1344 27.7007 25.2352 27.8233 25.2352H28.0686C28.0632 25.175 28.0605 25.1147 28.0605 25.0545C28.0605 24.962 28.0673 24.8723 28.0782 24.7827V24.7812Z" fill="#0059FF"/>
<path d="M28.5008 25.0517C28.5008 24.9593 28.5089 24.8682 28.5239 24.7799H28.0783C28.0674 24.8682 28.0605 24.9593 28.0605 25.0517C28.0605 25.1134 28.0633 25.1736 28.0687 25.2325H28.5117C28.5048 25.1722 28.5008 25.112 28.5008 25.0517Z" fill="#0059FF"/>
<path d="M30.1235 25.7342C30.4878 25.7342 30.7831 25.4305 30.7831 25.056C30.7831 24.6814 30.4878 24.3778 30.1235 24.3778C29.7592 24.3778 29.4639 24.6814 29.4639 25.056C29.4639 25.4305 29.7592 25.7342 30.1235 25.7342Z" fill="#0059FF"/>
</g>
<defs>
<clipPath id="clip0_877_11570">
<rect width="21.5063" height="11.5655" fill="white" transform="translate(11 16)"/>
</clipPath>
</defs>
</svg>
