<svg width="43" height="43" viewBox="0 0 43 43" fill="none" xmlns="http://www.w3.org/2000/svg">
<circle cx="21.5" cy="21.5" r="21.5" fill="white"/>
<g clip-path="url(#clip0_883_7580)">
<path d="M7 20.1529V18.6952H14.1434V20.1529H7ZM7.06984 16.6617C7.50171 16.4427 7.88948 16.2004 8.23131 15.9329C8.57313 15.6654 8.87452 15.3765 9.13365 15.0683C9.38726 14.764 9.58207 14.4403 9.72174 14.0933C9.85957 13.7463 9.93676 13.3819 9.95513 13H11.5705C11.5595 13.2559 11.5338 13.5001 11.4933 13.7386C11.4529 13.975 11.3959 14.2038 11.3206 14.4228C11.5797 14.5798 11.8297 14.7407 12.0722 14.9016C12.3148 15.0625 12.5409 15.2273 12.7541 15.3979C12.9617 15.5801 13.1767 15.7778 13.401 15.991C13.6252 16.2043 13.8567 16.4369 14.092 16.6928L13.072 17.914C12.8698 17.6775 12.664 17.4526 12.4508 17.2394C12.2376 17.0262 12.0189 16.8226 11.7947 16.6288C11.5871 16.4776 11.3849 16.3303 11.1864 16.1907C10.988 16.0511 10.7876 15.9213 10.5855 15.7991L10.4826 15.9368C10.3153 16.15 10.1371 16.3516 9.94778 16.5435C9.75849 16.7354 9.55634 16.9118 9.34316 17.0766C9.11895 17.253 8.88923 17.4119 8.65583 17.5554C8.42243 17.6988 8.18536 17.8268 7.94278 17.9431L7.06984 16.6617Z" fill="#0059FF"/>
<path d="M16.341 13.3954V18.5556H17.5907C17.7065 18.5556 17.8204 18.5536 17.9362 18.5478C18.052 18.542 18.1659 18.5304 18.2817 18.5129C18.3975 18.5071 18.5022 18.4955 18.5978 18.478C18.6934 18.4606 18.7834 18.4373 18.8643 18.4082V19.6915C18.7871 19.738 18.7007 19.7729 18.6051 19.8C18.5096 19.8252 18.403 19.8446 18.289 19.8563C18.1622 19.8737 18.0391 19.8853 17.9197 19.8911C17.7984 19.897 17.6789 19.8989 17.5576 19.8989H14.8193V13.3954H16.341ZM21.8727 15.5975V17.0978C21.8396 17.0978 21.8047 17.0978 21.7661 17.1017C21.7275 17.1056 21.6871 17.1095 21.643 17.1153C21.5989 17.1153 21.5548 17.1192 21.5107 17.123C21.4665 17.1289 21.4206 17.1308 21.371 17.1308C21.2773 17.1482 21.189 17.1657 21.1045 17.1831C21.02 17.2006 20.9391 17.218 20.8619 17.2355V20.2614H19.3402V13.283H20.8619V15.7545C20.9391 15.7312 21.02 15.7099 21.1045 15.6886C21.189 15.6692 21.2809 15.6498 21.3802 15.6324C21.4298 15.6324 21.4776 15.6304 21.5235 15.6246C21.5695 15.6188 21.6117 15.6169 21.6503 15.6169C21.6944 15.611 21.733 15.6072 21.7698 15.6033C21.8047 15.6014 21.8396 15.5994 21.8727 15.5994V15.5975Z" fill="#1D1D1B"/>
<path d="M24.7709 13.2869C24.9105 13.3179 25.0465 13.3644 25.177 13.4206C25.2983 13.4904 25.4104 13.5738 25.5133 13.6726C25.6181 13.7715 25.7155 13.8858 25.8092 14.0196C25.8919 14.1592 25.9691 14.3162 26.0389 14.4926C26.1106 14.669 26.1712 14.8609 26.219 15.0683C26.2631 15.2873 26.298 15.5277 26.3219 15.7875C26.3458 16.0472 26.3587 16.3283 26.3587 16.6288C26.3587 16.9292 26.3458 17.2277 26.3219 17.4914C26.298 17.755 26.2631 17.9896 26.219 18.1989C26.1694 18.418 26.1088 18.6157 26.0389 18.7882C25.9672 18.9607 25.8901 19.1158 25.8092 19.2476C25.7155 19.3872 25.6181 19.5054 25.5133 19.6023C25.4086 19.7012 25.2965 19.7787 25.177 19.8369C25.0465 19.9009 24.9105 19.9474 24.7709 19.9765C24.6312 20.0055 24.4842 20.0191 24.3316 20.0191C24.1681 20.0191 24.0155 20.0055 23.8759 19.9765C23.7362 19.9474 23.6057 19.9009 23.4863 19.8369C23.3539 19.7787 23.2363 19.7012 23.1279 19.6023C23.0213 19.5035 22.9257 19.3852 22.8449 19.2476C22.7512 19.1139 22.6721 18.9607 22.606 18.7882C22.5398 18.6157 22.4847 18.418 22.4424 18.1989C22.3928 17.9915 22.3579 17.755 22.3358 17.4914C22.3138 17.2277 22.3027 16.9409 22.3027 16.6288C22.3027 16.3167 22.3138 16.0472 22.3358 15.7875C22.3579 15.5277 22.3928 15.2873 22.4424 15.0683C22.4865 14.8609 22.5416 14.669 22.606 14.4926C22.6721 14.3162 22.7512 14.1592 22.8449 14.0196C22.9276 13.8858 23.0213 13.7715 23.1279 13.6726C23.2345 13.5738 23.3539 13.4904 23.4863 13.4206C23.6076 13.3625 23.7362 13.3179 23.8759 13.2869C24.0155 13.2558 24.1681 13.2384 24.3316 13.2384C24.4842 13.2384 24.6312 13.2539 24.7709 13.2869ZM24.203 14.6922C24.1626 14.7058 24.1258 14.7233 24.0927 14.7407C24.0486 14.7698 24.01 14.8066 23.9769 14.8493C23.9439 14.8919 23.9145 14.9481 23.8869 15.0179C23.8538 15.0877 23.8281 15.173 23.8097 15.2738C23.7913 15.3746 23.773 15.487 23.7564 15.6072C23.7344 15.7409 23.7197 15.8921 23.7105 16.0627C23.7031 16.2333 23.6976 16.4233 23.6976 16.6307C23.6976 16.8497 23.7013 17.0455 23.7105 17.2161C23.7178 17.3867 23.7344 17.5321 23.7564 17.6542C23.773 17.788 23.7913 17.9023 23.8097 18.0012C23.8281 18.1 23.8556 18.1834 23.8869 18.2532C23.9145 18.323 23.9439 18.3811 23.9769 18.4257C24.01 18.4722 24.0486 18.5032 24.0927 18.5207C24.1258 18.5498 24.1626 18.5692 24.203 18.5769C24.2434 18.5847 24.2857 18.5905 24.3298 18.5905C24.3629 18.5905 24.3978 18.5866 24.4364 18.5769C24.475 18.5692 24.5154 18.5498 24.5595 18.5207C24.5926 18.5032 24.6275 18.4722 24.6624 18.4257C24.6973 18.3792 24.7323 18.321 24.7653 18.2532C24.7874 18.1834 24.8113 18.1 24.8352 18.0012C24.8591 17.9023 24.883 17.788 24.905 17.6542C24.9216 17.5321 24.9344 17.3867 24.9454 17.2161C24.9565 17.0455 24.962 16.8497 24.962 16.6307C24.962 16.4233 24.9565 16.2333 24.9454 16.0627C24.9344 15.8921 24.9216 15.7409 24.905 15.6072C24.883 15.4851 24.8591 15.3746 24.8352 15.2738C24.8113 15.173 24.7874 15.0877 24.7653 15.0179C24.7323 14.9481 24.6973 14.8919 24.6624 14.8493C24.6275 14.8066 24.5926 14.7698 24.5595 14.7407C24.5154 14.7233 24.475 14.7078 24.4364 14.6922C24.3978 14.6787 24.3629 14.6709 24.3298 14.6709C24.2857 14.6709 24.2434 14.6787 24.203 14.6922ZM26.9854 20.2634V13.283H28.507V20.2634H26.9854Z" fill="#1D1D1B"/>
<path d="M29.7805 14.6534H29.4111V13.3527H33.366V14.6534H32.9066V18.5904H33.366V19.8911H29.4111V18.5904H29.7805V14.6534ZM31.5889 18.5904V14.6534H31.0964V18.5904H31.5889ZM34.261 17.1424C34.2169 17.1599 34.1673 17.1715 34.1085 17.1773C34.0515 17.1831 33.9872 17.1851 33.9155 17.1851C33.8328 17.1909 33.7519 17.1928 33.6729 17.1928H33.3146V15.8049H34.2592V13.283H35.6981V20.273H34.2592V17.1424H34.261Z" fill="#1D1D1B"/>
<path d="M7.50181 22.7446H7.17285V21.5137H10.6279V22.7446H10.2915V24.3749H10.6279V25.6038H7.17285V24.3749H7.50181V22.7446ZM12.8222 28.8314V27.6101H7.68191V26.1524H14.3328V28.8314H12.8222ZM9.11721 24.3749V22.7446H8.67615V24.3749H9.11721ZM12.9949 24.2566C12.9196 24.2741 12.8424 24.2876 12.7615 24.2973C12.6806 24.307 12.5979 24.3109 12.5116 24.3109V25.8326H11.1718V21.4866H12.5116V22.8803H12.9949V21.4866H14.3346V25.8326H12.9949V24.2566Z" fill="#0059FF"/>
<path d="M19.9251 25.3208C20.0776 25.3208 20.2265 25.3208 20.3698 25.317C20.5132 25.315 20.6492 25.3073 20.7815 25.2956C20.9028 25.2956 21.0186 25.2879 21.1307 25.2743C21.2428 25.2608 21.3494 25.2433 21.4468 25.2259V26.4665C21.3696 26.4956 21.2814 26.5208 21.1803 26.5401C21.0792 26.5595 20.9653 26.5731 20.8385 26.5789C20.7061 26.5964 20.5683 26.608 20.4231 26.6138C20.2779 26.6196 20.1291 26.6216 19.9747 26.6216H19.0779V27.4202H21.7335V28.7209H14.9355V27.4202H17.5911V26.6216H15.338V21.8433H21.3218V23.144H16.7347V23.5782H21.2391V24.8789H16.7347V25.3208H19.9251Z" fill="#1D1D1B"/>
<path d="M22.4813 24.4796H24.7914V23.2564H22.5218V21.913H26.1881V25.7803H23.878V27.1062H26.4178V28.4495H22.4795V24.4776L22.4813 24.4796ZM27.0022 28.8236V21.8433H28.5239V28.8236H27.0022Z" fill="#1D1D1B"/>
<path d="M32.378 23.3552V22.7233C31.1632 22.8667 30.191 23.8728 30.0293 25.1463H30.6302C30.7828 24.2178 31.4903 23.489 32.378 23.3552Z" fill="#0059FF"/>
<path d="M34.7194 25.1483H35.3203C35.1586 23.8747 34.1864 22.8687 32.9717 22.7252V23.3572C33.8593 23.4928 34.5669 24.2217 34.7194 25.1483Z" fill="#0059FF"/>
<path d="M30.6119 25.7743H30.0146C30.1268 27.106 31.121 28.1741 32.3762 28.3214V27.6895C31.4499 27.548 30.7185 26.759 30.6119 25.7743Z" fill="#0059FF"/>
<path d="M32.9717 27.6895V28.3214C34.2269 28.1741 35.2211 27.106 35.3332 25.7743H34.7359C34.6293 26.761 33.8979 27.5499 32.9717 27.6895Z" fill="#0059FF"/>
<path d="M32.6755 24.2759C32.0212 24.2759 31.4883 24.838 31.4883 25.5281C31.4883 26.2182 32.0212 26.7804 32.6755 26.7804C33.3297 26.7804 33.8627 26.2182 33.8627 25.5281C33.8627 24.838 33.3297 24.2759 32.6755 24.2759ZM32.6755 26.1523C32.3484 26.1523 32.0837 25.8712 32.0837 25.5281C32.0837 25.185 32.3502 24.9039 32.6755 24.9039C33.0008 24.9039 33.2672 25.185 33.2672 25.5281C33.2672 25.8712 33.0008 26.1523 32.6755 26.1523Z" fill="#0059FF"/>
<path d="M32.9714 22.7252V22.3704C32.9714 22.1979 32.8391 22.0564 32.6737 22.0564C32.5083 22.0564 32.376 22.196 32.376 22.3704V22.7252C32.4734 22.7135 32.5726 22.7077 32.6737 22.7077C32.7748 22.7077 32.874 22.7135 32.9714 22.7252Z" fill="#0059FF"/>
<path d="M32.6757 23.3339C32.7767 23.3339 32.876 23.3416 32.9734 23.3571V22.7252C32.876 22.7136 32.7767 22.7078 32.6757 22.7078C32.5746 22.7078 32.4753 22.7136 32.3779 22.7252V23.3571C32.4753 23.3416 32.5746 23.3339 32.6757 23.3339Z" fill="#0059FF"/>
<path d="M32.3779 28.3215V28.686C32.3779 28.8585 32.5103 29 32.6757 29C32.841 29 32.9734 28.8604 32.9734 28.686V28.3215C32.876 28.3332 32.7767 28.339 32.6757 28.339C32.5746 28.339 32.4753 28.3332 32.3779 28.3215Z" fill="#0059FF"/>
<path d="M32.6757 27.7128C32.5746 27.7128 32.4753 27.7051 32.3779 27.6896V28.3215C32.4753 28.3331 32.5746 28.339 32.6757 28.339C32.7767 28.339 32.876 28.3331 32.9734 28.3215V27.6896C32.876 27.7051 32.7767 27.7128 32.6757 27.7128Z" fill="#0059FF"/>
<path d="M35.7045 25.1482H35.3223C35.337 25.2703 35.3462 25.3963 35.3462 25.5242C35.3462 25.6095 35.3425 25.6929 35.3351 25.7743H35.7045C35.8681 25.7743 36.0022 25.6347 36.0022 25.4603C36.0022 25.2858 35.8699 25.1462 35.7045 25.1462V25.1482Z" fill="#0059FF"/>
<path d="M35.3197 25.1482H34.7188C34.739 25.2703 34.75 25.3963 34.75 25.5243C34.75 25.6095 34.7445 25.6929 34.7353 25.7743H35.3326C35.3399 25.691 35.3436 25.6076 35.3436 25.5243C35.3436 25.3963 35.3344 25.2723 35.3197 25.1482Z" fill="#0059FF"/>
<path d="M30.0291 25.1482H29.6854C29.5219 25.1482 29.3877 25.2878 29.3877 25.4622C29.3877 25.6367 29.52 25.7763 29.6854 25.7763H30.0162C30.0089 25.6929 30.0052 25.6095 30.0052 25.5262C30.0052 25.3983 30.0144 25.2742 30.0291 25.1501V25.1482Z" fill="#0059FF"/>
<path d="M30.5985 25.5223C30.5985 25.3944 30.6095 25.2684 30.6297 25.1462H30.0288C30.0141 25.2684 30.0049 25.3944 30.0049 25.5223C30.0049 25.6076 30.0086 25.6909 30.0159 25.7724H30.6132C30.604 25.689 30.5985 25.6057 30.5985 25.5223Z" fill="#0059FF"/>
<path d="M32.7879 26.4664C33.2792 26.4664 33.6774 26.0463 33.6774 25.5282C33.6774 25.01 33.2792 24.59 32.7879 24.59C32.2967 24.59 31.8984 25.01 31.8984 25.5282C31.8984 26.0463 32.2967 26.4664 32.7879 26.4664Z" fill="#0059FF"/>
</g>
<defs>
<clipPath id="clip0_883_7580">
<rect width="29" height="16" fill="white" transform="translate(7 13)"/>
</clipPath>
</defs>
</svg>
